<svg width="24" height="24" viewBox="0 0 24 24" fill="none" xmlns="http://www.w3.org/2000/svg">
<path d="M12 2C6.5 2 2 6.5 2 12C2 17.5 6.5 22 12 22C17.5 22 22 17.5 22 12C22 6.5 17.5 2 12 2ZM11.6667 7C12.1667 7 12.5833 7.41667 12.5833 7.91667C12.5833 8.41667 12.1667 8.83333 11.6667 8.83333C11.1667 8.83333 10.75 8.41667 10.75 7.91667C10.75 7.41667 11.1667 7 11.6667 7ZM13.8333 16.3333H13.1667C12.1667 16.3333 11.3333 15.5 11.3333 14.5V11.3333H10.6667C10.3333 11.3333 10 11.0833 10 10.6667C10 10.25 10.25 10 10.6667 10H11.3333C12 10 12.5833 10.5833 12.5833 11.25V14.5C12.5833 14.8333 12.8333 15.1667 13.25 15.1667H13.9167C14.25 15.1667 14.5833 15.4167 14.5833 15.8333C14.5833 16.25 14.25 16.3333 13.8333 16.3333Z" fill="#36506C"/>
</svg>
